<svg xmlns="http://www.w3.org/2000/svg" width="512" height="512" viewBox="0 0 512 512">
  <rect width="512" height="512" rx="64" fill="#2563eb"/>
  <g transform="translate(256,256) scale(2.67)" fill="none" stroke="white" stroke-width="8" stroke-linecap="round" stroke-linejoin="round">
    <path d="M-20,-30 C-20,-30 -38,0 -38,16 A18,18 0 0,0 -2,16 C-2,0 -20,-30 -20,-30Z" fill="white" stroke="none"/>
    <path d="M20,-10 C20,-10 8,10 8,22 A12,12 0 0,0 32,22 C32,10 20,-10 20,-10Z" fill="white" stroke="none"/>
    <path d="M-5,10 C-5,10 -13,24 -13,32 A8,8 0 0,0 3,32 C3,24 -5,10 -5,10Z" fill="white" stroke="none"/>
  </g>
</svg>
